. 
  
http://www.torrentday.com/        :     The Hottest Private Tracker On The Net!!!
 
http://www.torrentday.com          :     Once & For all ;)


               www . TorrentDay . Com 

(((((((((((((= Enjoy No RAR releases =))))))))))))))))))))


...................................NFO:....................................

.[img]http://img137.imageshack.us/img137/4173/posterbz.jpg[/img]

[color=red][size=4][b]Conviction.2010.DVDRiP.XViD.AC3.NiTR0[/b][/size][/color]

Source: R1 NTSC DVD9
Runtime: 107 Mins
IMDB: http://www.imdb.com/title/tt1244754/  
Audio: English
Subtitles: NONE

[color=red][size=3][b]General[/b][/size][/color]
Complete name                    : Conviction.2010.DVDRiP.XViD.AC3.NiTR0.avi
Format                           : AVI
Format/Info                      : Audio Video Interleave
Format profile                   : OpenDML
File size                        : 1.37 GiB
Duration                         : 1h 47mn
Overall bit rate                 : 1 828 Kbps

[color=red][size=3][b]Video[/b][/size][/color]
Format                           : MPEG-4 Visual
Format profile                   : Advanced Simple@L5
Format settings, BVOP            : 2
Format settings, QPel            : No
Format settings, GMC             : No warppoints
Format settings, Matrix          : Default (H.263)
Muxing mode                      : Packed bitstream
Codec ID                         : XVID
Duration                         : 1h 47mn
Bit rate                         : 1 375 Kbps
Width                            : 720 pixels
Height                           : 384 pixels
Display aspect ratio             : 1.875
Frame rate                       : 23.976 fps
Scan type                        : Progressive
Stream size                      : 1.03 GiB (75%)

[color=red][size=3][b]Audio[/b][/size][/color]
Format                           : AC-3
Format/Info                      : Audio Coding 3
Mode extension                   : CM (complete main)
Duration                         : 1h 47mn
Bit rate mode                    : Constant
Bit rate                         : 448 Kbps
Channel(s)                       : 6 channels
Channel positions                : Front: L C R, Side: L R, LFE
Sampling rate                    : 48.0 KHz
Bit depth                        : 16 bits
Stream size                      : 343 MiB (25%)
Alignment                        : Aligned on interleaves
Interleave, duration             : 64 ms (1.53 video frames)
Interleave, preload duration     : 192 ms

[color=red][size=3][b]Plot:[/b][/size][/color]
When Betty Anne Waters' older brother Kenny is arrested for murder and sentenced to life in 1983, Betty Anne,
a Massachusetts wife and mother of two, dedicates her life to overturning the murder conviction. Convinced that
her brother is innocent, Betty Anne puts herself through high school, college and, finally, law school in an 18
year quest to free Kenny. With the help of best friend Abra Rice, Betty Anne pores through suspicious evidence
mounted by small town cop Nancy Taylor, meticulously retracing the steps that led to Kenny's arrest. Belief in
her brother - and her quest for the truth - pushes Betty Anne and her team to uncover the facts and utilize DNA
evidence with the hope of exonerating Kenny.

[color=red][size=3][b]Group Notes:[/b][/size][/color]
Special thanks to HiTM4N

[color=red][size=3][b]Screens:[/b][/size][/color]
[img]http://img822.imageshack.us/img822/6760/90949272.png[/img]
[img]http://img822.imageshack.us/img822/679/38650726.png[/img]
[img]http://img822.imageshack.us/img822/1048/15603922.png[/img]